<?xml version='1.0' encoding='utf-8'?>
<svg xmlns="http://www.w3.org/2000/svg" viewBox="-36.16 -36.1147 400 399.91" width="400">
  <style>path {
fill: none;
stroke: #1a1a1a;
stroke-width: 1;
stroke-linecap: round;
stroke-linejoin: round;
vector-effect: non-scaling-stroke;
}
.undefined, .isoline, .sewn, .smooth {
stroke-width: 0.75;
}
.hidden {
stroke: #666666;
stroke-dasharray: 1.5 2.5;
}</style>
  <g transform="scale(1.28 -1.28) translate(0 -256)">
    <path id="e0" d="M3.14065,128.035 A36.4731,36.4731,0,0,1,39.6153,91.5801" class="s0 sharp hidden" />
    <path id="e1" d="M39.6153,91.5801 A36.4731,36.4731,0,0,1,40.1094,91.6153" class="s0 sharp hidden" />
    <path id="e2" d="M40.1094,91.6153 A36.4731,36.4731,0,0,1,39.7266,91.2833" class="s0 sharp hidden" />
    <path id="e3" d="M39.7266,91.2833 A36.4731,36.4731,0,0,1,39.7266,39.7032" class="s0 sharp hidden" />
    <path id="e4" d="M39.7266,39.7032 A36.4731,36.4731,0,0,1,91.3067,39.7032" class="s0 sharp hidden" />
    <path id="e5" d="M91.3067,39.7032 A36.4731,36.4731,0,0,1,91.6309,40.043" class="s0 sharp hidden" />
    <path id="e6" d="M91.6309,40.043 A36.4731,36.4731,0,0,1,91.5977,39.5801" class="s0 sharp hidden" />
    <path id="e7" d="M91.5977,39.5802 A36.4731,36.4731,0,0,1,128.07,3.10554" class="s0 sharp hidden" />
    <path id="e8" d="M128.07,3.10554 A36.4731,36.4731,0,0,1,164.543,39.5801" class="s0 sharp hidden" />
    <path id="e9" d="M164.543,39.5801 A36.4731,36.4731,0,0,1,164.531,40.0411" class="s0 sharp hidden" />
    <path id="e10" d="M164.531,40.0411 A36.4731,36.4731,0,0,1,164.834,39.6915" class="s0 sharp hidden" />
    <path id="e11" d="M164.834,39.6915 A36.4731,36.4731,0,0,1,216.416,39.6915" class="s0 sharp hidden" />
    <path id="e12" d="M216.416,39.6915 A36.4731,36.4731,0,0,1,216.416,91.2716" class="s0 sharp hidden" />
    <path id="e13" d="M216.416,91.2716 A36.4731,36.4731,0,0,1,216.018,91.6173" class="s0 sharp hidden" />
    <path id="e14" d="M216.018,91.6173 A36.4731,36.4731,0,0,1,216.527,91.5802" class="s0 sharp hidden" />
    <path id="e15" d="M216.527,91.5802 A36.4731,36.4731,0,0,1,253,128.035" class="s0 sharp hidden" />
    <path id="e16" d="M128.07,252.965 A36.4731,36.4731,0,0,1,91.5977,216.492" class="s0 sharp" />
    <path id="e17" d="M91.5977,216.492 A36.4731,36.4731,0,0,1,91.6289,216.041" class="s0 sharp" />
    <path id="e18" d="M91.6289,216.041 A36.4731,36.4731,0,0,1,91.3203,216.367" class="s0 sharp" />
    <path id="e19" d="M91.3203,216.367 A36.4731,36.4731,0,0,1,39.7383,216.367" class="s0 sharp" />
    <path id="e20" d="M39.7383,216.367 A36.4731,36.4731,0,0,1,39.7383,164.787" class="s0 sharp" />
    <path id="e21" d="M39.7383,164.787 A36.4731,36.4731,0,0,1,40.0508,164.516" class="s0 sharp" />
    <path id="e22" d="M40.0508,164.516 A36.4731,36.4731,0,0,1,39.6153,164.527" class="s0 sharp" />
    <path id="e23" d="M39.6153,164.527 A36.4731,36.4731,0,0,1,3.14065,128.053" class="s0 sharp" />
    <path id="e24" d="M3.14065,128.053 A36.4731,36.4731,0,0,1,3.14065,128.035" class="s0 sharp" />
    <path id="e25" d="M253,128.035 A36.4731,36.4731,0,0,1,253,128.053" class="s0 sharp" />
    <path id="e26" d="M253,128.053 A36.4731,36.4731,0,0,1,216.527,164.527" class="s0 sharp" />
    <path id="e27" d="M216.527,164.527 A36.4731,36.4731,0,0,1,216.049,164.494" class="s0 sharp" />
    <path id="e28" d="M216.049,164.494 A36.4731,36.4731,0,0,1,216.402,164.799" class="s0 sharp" />
    <path id="e29" d="M216.402,164.799 A36.4731,36.4731,0,0,1,216.402,216.381" class="s0 sharp" />
    <path id="e30" d="M216.402,216.381 A36.4731,36.4731,0,0,1,164.822,216.381" class="s0 sharp" />
    <path id="e31" d="M164.822,216.381 A36.4731,36.4731,0,0,1,164.51,216.02" class="s0 sharp" />
    <path id="e32" d="M164.51,216.02 A36.4731,36.4731,0,0,1,164.543,216.492" class="s0 sharp" />
    <path id="e33" d="M164.543,216.492 A36.4731,36.4731,0,0,1,128.07,252.965" class="s0 sharp" />
    <path id="e34" d="M128.07,252.965 L128.07,252.965" class="s0 sharp" />
    <path id="e35" d="M19.8125,128.035 A19.803,19.803,0,0,1,39.6152,108.25" class="s1 sharp hidden" />
    <path id="e36" d="M39.6152,108.25 A19.803,19.803,0,0,1,53.5449,114.051" class="s1 sharp hidden" />
    <path id="e37" d="M53.5449,114.051 L94.1953,114.051" class="s1 sharp hidden" />
    <path id="e38" d="M94.1953,114.051 L65.4355,85.291" class="s1 sharp hidden" />
    <path id="e39" d="M65.4355,85.291 A19.803,19.803,0,0,1,45.7129,65.4941" class="s1 sharp hidden" />
    <path id="e40" d="M45.7129,65.4941 A19.803,19.803,0,0,1,65.5156,45.6914" class="s1 sharp hidden" />
    <path id="e41" d="M65.5156,45.6914 A19.803,19.803,0,0,1,85.3203,65.4941" class="s1 sharp hidden" />
    <path id="e42" d="M85.3203,65.4941 A19.803,19.803,0,0,1,85.3185,65.5683" class="s1 sharp hidden" />
    <path id="e43" d="M85.3185,65.5683 L113.998,94.248" class="s1 sharp hidden" />
    <path id="e44" d="M113.998,94.248 L113.998,53.4394" class="s1 sharp hidden" />
    <path id="e45" d="M113.998,53.4394 A19.803,19.803,0,0,1,108.268,39.5801" class="s1 sharp hidden" />
    <path id="e46" d="M108.268,39.5801 A19.803,19.803,0,0,1,128.07,19.7754" class="s1 sharp hidden" />
    <path id="e47" d="M128.07,19.7754 A19.803,19.803,0,0,1,147.873,39.5801" class="s1 sharp hidden" />
    <path id="e48" d="M147.873,39.5801 A19.803,19.803,0,0,1,142.002,53.6504" class="s1 sharp hidden" />
    <path id="e49" d="M142.002,53.6504 L142.002,94.248" class="s1 sharp hidden" />
    <path id="e50" d="M142.002,94.248 L170.826,65.4238" class="s1 sharp hidden" />
    <path id="e51" d="M170.826,65.4238 A19.803,19.803,0,0,1,190.625,45.6777" class="s1 sharp hidden" />
    <path id="e52" d="M190.625,45.6777 A19.803,19.803,0,0,1,210.428,65.4804" class="s1 sharp hidden" />
    <path id="e53" d="M210.428,65.4805 A19.803,19.803,0,0,1,190.625,85.2832" class="s1 sharp hidden" />
    <path id="e54" d="M190.625,85.2832 A19.803,19.803,0,0,1,190.576,85.2792" class="s1 sharp hidden" />
    <path id="e55" d="M190.576,85.2792 L161.805,114.051" class="s1 sharp hidden" />
    <path id="e56" d="M161.805,114.051 L202.596,114.051" class="s1 sharp hidden" />
    <path id="e57" d="M202.596,114.051 A19.803,19.803,0,0,1,216.527,108.25" class="s1 sharp hidden" />
    <path id="e58" d="M216.527,108.25 A19.803,19.803,0,0,1,236.33,128.035" class="s1 sharp hidden" />
    <path id="e59" d="M128.07,236.295 A19.803,19.803,0,0,1,108.268,216.492" class="s1 sharp" />
    <path id="e60" d="M108.268,216.492 A19.803,19.803,0,0,1,113.998,202.631" class="s1 sharp" />
    <path id="e61" d="M113.998,202.631 L113.998,161.859" class="s1 sharp" />
    <path id="e62" d="M113.998,161.859 L85.3281,190.529" class="s1 sharp" />
    <path id="e63" d="M85.3281,190.529 A19.803,19.803,0,0,1,85.3316,190.576" class="s1 sharp" />
    <path id="e64" d="M85.3316,190.576 A19.803,19.803,0,0,1,65.5293,210.381" class="s1 sharp" />
    <path id="e65" d="M65.5293,210.381 A19.803,19.803,0,0,1,45.7266,190.576" class="s1 sharp" />
    <path id="e66" d="M45.7266,190.576 A19.803,19.803,0,0,1,65.4746,170.777" class="s1 sharp" />
    <path id="e67" d="M65.4746,170.777 L94.1953,142.057" class="s1 sharp" />
    <path id="e68" d="M94.1953,142.057 L53.6172,142.057" class="s1 sharp" />
    <path id="e69" d="M53.6172,142.057 A19.803,19.803,0,0,1,39.6152,147.857" class="s1 sharp" />
    <path id="e70" d="M39.6152,147.857 A19.803,19.803,0,0,1,19.8125,128.053" class="s1 sharp" />
    <path id="e71" d="M19.8125,128.053 A19.803,19.803,0,0,1,19.8125,128.035" class="s1 sharp" />
    <path id="e72" d="M236.33,128.035 A19.803,19.803,0,0,1,236.33,128.053" class="s1 sharp" />
    <path id="e73" d="M236.33,128.053 A19.803,19.803,0,0,1,216.527,147.857" class="s1 sharp" />
    <path id="e74" d="M216.527,147.857 A19.803,19.803,0,0,1,202.596,142.057" class="s1 sharp" />
    <path id="e75" d="M202.596,142.057 L161.805,142.057" class="s1 sharp" />
    <path id="e76" d="M161.805,142.057 L190.541,170.793" class="s1 sharp" />
    <path id="e77" d="M190.541,170.793 A19.803,19.803,0,0,1,190.611,170.787" class="s1 sharp" />
    <path id="e78" d="M190.611,170.787 A19.803,19.803,0,0,1,210.416,190.59" class="s1 sharp" />
    <path id="e79" d="M210.416,190.59 A19.803,19.803,0,0,1,190.611,210.393" class="s1 sharp" />
    <path id="e80" d="M190.611,210.393 A19.803,19.803,0,0,1,170.815,190.672" class="s1 sharp" />
    <path id="e81" d="M170.815,190.672 L142.002,161.859" class="s1 sharp" />
    <path id="e82" d="M142.002,161.859 L142.002,202.488" class="s1 sharp" />
    <path id="e83" d="M142.002,202.488 A19.803,19.803,0,0,1,147.873,216.492" class="s1 sharp" />
    <path id="e84" d="M147.873,216.492 A19.803,19.803,0,0,1,128.07,236.295" class="s1 sharp" />
    <path id="e85" d="M3,128.035 L253,128.035" class="s2 sharp" />
    <path id="e86" d="M253,128.035 L253,39.6961" class="s2 sharp" />
    <path id="e87" d="M216.339,3.03537 L39.6608,3.03537" class="s2 sharp" />
    <path id="e88" d="M3,39.6961 L3,128.035" class="s2 sharp" />
    <path id="e89" d="M253,39.6961 C253,18.9364,237.099,3.03537,216.339,3.03537" class="s2 sharp" />
    <path id="e90" d="M39.6608,3.03537 C18.9011,3.03537,3,18.9364,3,39.6961" class="s2 sharp" />
    <path id="e91" d="M63.1992,57.7227 L63.1992,57.7127" class="s3 sharp" />
    <path id="e92" d="M72.6934,53.781 L72.7012,53.781" class="s3 sharp" />
    <path id="e93" d="M49.7851,44.3045 L30.8066,44.3045" class="s3 sharp" />
    <path id="e94" d="M53.7148,80.6385 L53.707,80.6385" class="s3 sharp" />
    <path id="e95" d="M76.625,90.115 L95.6016,90.115" class="s3 sharp" />
    <path id="e96" d="M63.1992,122.508 L63.1992,122.508" class="s3 sharp" />
    <path id="e97" d="M63.1992,122.508 C45.3176,122.508,30.8066,108.006,30.8066,90.1152" class="s3 sharp" />
    <path id="e98" d="M30.8066,90.1152 C30.8066,81.1736,34.4368,73.077,40.3008,67.2148" class="s3 sharp" />
    <path id="e99" d="M40.3008,67.2148 C46.163,61.3509,54.5243,59.0531,63.1992,57.7227" class="s3 sharp" />
    <path id="e100" d="M63.1992,57.7127 C66.777,57.0466,70.264,56.2104,72.6934,53.781" class="s3 sharp" />
    <path id="e101" d="M72.7012,53.781 C75.1217,51.3517,76.625,48.0059,76.625,44.3045" class="s3 sharp" />
    <path id="e102" d="M76.625,44.3045 C76.625,36.8946,70.6109,30.8806,63.1992,30.8806" class="s3 sharp" />
    <path id="e103" d="M63.1992,30.8806 C55.7893,30.8806,49.7851,36.8946,49.7851,44.3045" class="s3 sharp" />
    <path id="e104" d="M30.8066,44.3045 C30.8066,26.414,45.3176,11.9041,63.1992,11.9041" class="s3 sharp" />
    <path id="e105" d="M63.1992,11.9041 C81.0897,11.9041,95.6016,26.414,95.6016,44.3045" class="s3 sharp" />
    <path id="e106" d="M95.6016,44.3045 C95.6016,53.2462,91.9714,61.3429,86.1074,67.2068" class="s3 sharp" />
    <path id="e107" d="M86.1074,67.2068 C80.2452,73.069,72.1497,75.766,63.1992,76.697" class="s3 sharp" />
    <path id="e108" d="M63.1992,76.697 C58.1674,77.4956,56.1442,78.2003,53.7148,80.6385" class="s3 sharp" />
    <path id="e109" d="M53.707,80.6385 C51.2883,83.0589,49.7852,86.4136,49.7852,90.115" class="s3 sharp" />
    <path id="e110" d="M49.7852,90.115 C49.7852,97.5249,55.7893,103.529,63.1992,103.529" class="s3 sharp" />
    <path id="e111" d="M63.1992,103.529 C70.6109,103.529,76.625,97.5249,76.625,90.115" class="s3 sharp" />
    <path id="e112" d="M95.6016,90.115 C95.6016,108.005,81.0897,122.508,63.1992,122.508" class="s3 sharp" />
    <path id="e113" d="M95.6016,122.508 L118.498,11.9043" class="s4 sharp" />
    <path id="e114" d="M118.498,11.9043 L137.473,11.9043" class="s4 sharp" />
    <path id="e115" d="M137.473,11.9043 L160.389,122.508" class="s4 sharp" />
    <path id="e116" d="M160.389,122.508 L141.414,122.508" class="s4 sharp" />
    <path id="e117" d="M141.414,122.508 L128.004,57.7305" class="s4 sharp" />
    <path id="e118" d="M128.004,57.7305 L114.576,122.508" class="s4 sharp" />
    <path id="e119" d="M114.576,122.508 L95.6016,122.508" class="s4 sharp" />
    <path id="e120" d="M160.391,90.1132 L160.399,90.1132" class="s5 sharp" />
    <path id="e121" d="M160.399,90.1132 L160.399,44.3046" class="s5 sharp" />
    <path id="e122" d="M225.194,44.3046 L225.184,44.3046" class="s5 sharp" />
    <path id="e123" d="M225.184,44.3046 L225.184,76.6972" class="s5 sharp" />
    <path id="e124" d="M225.184,76.6972 L192.791,76.6972" class="s5 sharp" />
    <path id="e125" d="M192.791,76.6972 L192.791,57.7109" class="s5 sharp" />
    <path id="e126" d="M192.791,57.7109 L206.207,57.7109" class="s5 sharp" />
    <path id="e127" d="M206.207,57.7109 L206.207,44.3046" class="s5 sharp" />
    <path id="e128" d="M206.207,44.3046 L206.207,44.2966" class="s5 sharp" />
    <path id="e129" d="M179.375,44.3045 L179.375,90.113" class="s5 sharp" />
    <path id="e130" d="M206.207,90.113 L225.184,90.113" class="s5 sharp" />
    <path id="e131" d="M192.791,122.506 L192.791,122.506" class="s5 sharp" />
    <path id="e132" d="M192.791,122.506 C174.899,122.506,160.391,108.004,160.391,90.1132" class="s5 sharp" />
    <path id="e133" d="M160.399,44.3046 C160.399,26.4124,174.899,11.9023,192.791,11.9023" class="s5 sharp" />
    <path id="e134" d="M192.791,11.9023 C210.682,11.9023,225.194,26.4124,225.194,44.3046" class="s5 sharp" />
    <path id="e135" d="M206.207,44.2966 C206.198,36.8938,200.192,30.8885,192.791,30.8885" class="s5 sharp" />
    <path id="e136" d="M192.791,30.8885 C185.379,30.8885,179.375,36.8928,179.375,44.3045" class="s5 sharp" />
    <path id="e137" d="M179.375,90.113 C179.375,97.5158,185.379,103.529,192.791,103.529" class="s5 sharp" />
    <path id="e138" d="M192.791,103.529 C200.192,103.529,206.207,97.5158,206.207,90.113" class="s5 sharp" />
    <path id="e139" d="M225.184,90.113 C225.184,108.003,210.673,122.506,192.791,122.506" class="s5 sharp" />
  </g>
  <style>@media (prefers-color-scheme: dark){
path {
fill: none;
stroke: #e5e5e5;
stroke-width: 1;
stroke-linecap: round;
stroke-linejoin: round;
vector-effect: non-scaling-stroke;
}
.undefined, .isoline, .sewn, .smooth {
stroke-width: 0.75;
}
.hidden {
stroke: #999999;
stroke-dasharray: 1.5 2.5;
}
}</style>
</svg>