<?xml version='1.0' encoding='utf-8'?>
<svg xmlns="http://www.w3.org/2000/svg" viewBox="5.84476 -143.032 400 317.018" width="400">
  <style>path {
fill: none;
stroke: #1a1a1a;
stroke-width: 1;
stroke-linecap: round;
stroke-linejoin: round;
vector-effect: non-scaling-stroke;
}
.undefined, .isoline, .sewn, .smooth {
stroke-width: 0.75;
}
.hidden {
stroke: #666666;
stroke-dasharray: 1.5 2.5;
}</style>
  <g transform="scale(1.33419 -1.33419) translate(0 -23.2013)">
    <path id="e0" d="M227.679,82.8417 L227.679,82.8417" class="s0 sharp hidden" />
    <path id="e1" d="M178.442,71.9758 L176.933,74.5103 L175.008,76.9162 L172.691,79.1633 L170.011,81.2233 L167.002,83.0704 L163.701,84.6812 L160.151,86.0355 L156.396,87.1163 L152.483,87.91 L148.461,88.4066 L144.381,88.5999 L140.294,88.4874 L136.252,88.0705 L132.305,87.3546" class="s0 sharp hidden" />
    <path id="e2" d="M227.679,82.8417 L223.924,83.9224 L220.011,84.716 L215.989,85.2126 L211.909,85.4059 L207.823,85.2934 L203.781,84.8767 L199.834,84.1608 L196.033,83.1548 L192.424,81.8715 L189.053,80.3268 L185.964,78.5403 L183.193,76.5343 L180.777,74.3342 L178.746,71.9676" class="s0 sharp hidden" />
    <path id="e3" d="M178.746,71.9676 L178.733,71.9478 L178.721,71.9279 L178.708,71.9081 L178.696,71.8882 L178.683,71.8684 L178.671,71.8485 L178.658,71.8286 L178.646,71.8087 L178.633,71.7888 L178.621,71.7689 L178.609,71.749 L178.596,71.7291 L178.584,71.7092 L178.572,71.6893" class="s0 sharp hidden" />
    <path id="e4" d="M178.572,71.6893 L178.563,71.7098 L178.554,71.7303 L178.544,71.7507 L178.535,71.7712 L178.526,71.7917 L178.517,71.8122 L178.507,71.8326 L178.498,71.8531 L178.489,71.8736 L178.479,71.894 L178.47,71.9145 L178.461,71.9349 L178.451,71.9553 L178.442,71.9758" class="s0 sharp hidden" />
    <path id="e5" d="M132.305,87.3546 L129.268,86.5777 L126.347,85.6235 L123.565,84.4996 L120.944,83.215 L118.506,81.7797 L116.269,80.2054 L114.251,78.5044 L112.469,76.6903 L110.936,74.7776 L109.664,72.7814 L108.665,70.7176 L107.946,68.6027 L107.512,66.4535 L107.367,64.287" class="s0 sharp hidden" />
    <path id="e6" d="M132.305,117.169 L132.305,87.3546" class="s0 sewn hidden" />
    <path id="e7" d="M247.84,61.0935 L247.726,63.0144 L247.385,64.9232 L246.819,66.8082 L246.031,68.6574 L245.026,70.4593 L243.811,72.2027 L242.393,73.8767 L240.781,75.4708 L238.986,76.9749 L237.018,78.3799 L234.889,79.6767 L232.613,80.8575 L230.205,81.9146 L227.679,82.8417" class="s0 sharp hidden" />
    <path id="e8" d="M227.679,112.656 L227.679,82.8417" class="s0 sharp hidden" />
    <path id="e9" d="M227.679,112.656 L227.679,82.8417" class="s0 sharp hidden" />
    <path id="e10" d="M227.679,112.656 L227.679,112.656" class="s0 sharp" />
    <path id="e11" d="M107.367,64.287 L107.376,63.7283 L107.405,63.1698 L107.453,62.612 L107.521,62.055 L107.607,61.4992 L107.713,60.9449 L107.837,60.3923 L107.981,59.8418 L108.144,59.2936 L108.325,58.7481 L108.526,58.2055 L108.745,57.6661 L108.982,57.1302 L109.238,56.5981" class="s0 sharp hidden" />
    <path id="e12" d="M109.238,56.5981 L109.249,56.5799 L109.26,56.5616 L109.272,56.5434 L109.283,56.5251 L109.294,56.5069 L109.305,56.4887 L109.317,56.4705 L109.328,56.4522 L109.339,56.434 L109.351,56.4158 L109.362,56.3976 L109.373,56.3794 L109.385,56.3613 L109.396,56.3431" class="s0 sharp hidden" />
    <path id="e13" d="M109.396,56.3431 L109.369,56.353 L109.341,56.3628 L109.314,56.3727 L109.287,56.3825 L109.259,56.3923 L109.232,56.4021 L109.204,56.4119 L109.177,56.4217 L109.149,56.4314 L109.122,56.4412 L109.094,56.4509 L109.067,56.4606 L109.039,56.4703 L109.012,56.4799" class="s0 sharp hidden" />
    <path id="e14" d="M152.696,98.4563 L150.657,99.0431 L148.533,99.474 L146.349,99.7436 L144.134,99.8485 L141.915,99.7874 L139.72,99.5611 L137.577,99.1723 L135.513,98.626 L133.554,97.9291 L131.724,97.0903 L130.046,96.1201 L128.542,95.0309 L127.23,93.8362 L126.127,92.5511" class="s0 sharp" />
    <path id="e15" d="M152.696,105.91 L152.696,98.4563" class="s0 sewn" />
    <path id="e16" d="M243.99,50.2196 L244.512,50.9457 L244.998,51.6829 L245.447,52.4304 L245.858,53.1874 L246.232,53.9531 L246.568,54.7266 L246.865,55.5071 L247.123,56.2937 L247.341,57.0856 L247.521,57.8819 L247.66,58.6817 L247.76,59.4842 L247.82,60.2884 L247.84,61.0935" class="s0 sharp hidden" />
    <path id="e17" d="M126.127,92.5511 L126.017,92.4011 L125.909,92.2502 L125.804,92.0984 L125.702,91.9457 L125.603,91.7921 L125.507,91.6378 L125.413,91.4826 L125.323,91.3267 L125.236,91.17 L125.151,91.0126 L125.07,90.8545 L124.992,90.6957 L124.916,90.5362 L124.844,90.3762" class="s0 sharp" />
    <path id="e18" d="M162.837,90.375 L162.477,91.1109 L162.053,91.8314 L161.566,92.534 L161.018,93.2165 L160.411,93.8763 L159.747,94.5113 L159.028,95.1193 L158.258,95.6982 L157.437,96.2459 L156.57,96.7607 L155.659,97.2407 L154.708,97.6843 L153.719,98.09 L152.696,98.4563" class="s0 sharp" />
    <path id="e19" d="M244.19,50.0699 L244.158,50.0613 L244.127,50.0527 L244.095,50.0441 L244.064,50.0354 L244.032,50.0267 L244.001,50.018 L243.969,50.0093 L243.938,50.0005 L243.906,49.9918 L243.875,49.983 L243.843,49.9742 L243.812,49.9654 L243.78,49.9565 L243.749,49.9477" class="s0 sharp hidden" />
    <path id="e20" d="M243.749,49.9477 L243.766,49.967 L243.784,49.9864 L243.801,50.0058 L243.818,50.0251 L243.836,50.0445 L243.853,50.0639 L243.87,50.0834 L243.887,50.1028 L243.904,50.1222 L243.922,50.1417 L243.939,50.1611 L243.956,50.1806 L243.973,50.2001 L243.99,50.2196" class="s0 sharp hidden" />
    <path id="e21" d="M220.224,95.2623 L218.185,95.8491 L216.061,96.28 L213.877,96.5496 L211.662,96.6546 L209.443,96.5935 L207.248,96.3672 L205.106,95.9785 L203.042,95.4324 L201.082,94.7355 L199.252,93.8969 L197.575,92.9269 L196.07,91.8378 L194.759,90.6432 L193.656,89.3583" class="s0 sharp" />
    <path id="e22" d="M220.224,102.716 L220.224,95.2623" class="s0 sewn" />
    <path id="e23" d="M178.442,101.79 L176.933,104.325 L175.008,106.73 L172.691,108.978 L170.011,111.038 L167.002,112.885 L163.701,114.495 L160.151,115.85 L156.396,116.931 L152.483,117.724 L148.461,118.221 L144.381,118.414 L140.294,118.302 L136.252,117.885 L132.305,117.169" class="s0 sharp" />
    <path id="e24" d="M178.442,101.79 L178.442,71.9758" class="s0 sharp hidden" />
    <path id="e25" d="M178.746,101.782 L178.746,71.9676" class="s0 sharp hidden" />
    <path id="e26" d="M227.679,112.656 L223.924,113.737 L220.011,114.53 L215.989,115.027 L211.909,115.22 L207.823,115.108 L203.781,114.691 L199.834,113.975 L196.033,112.969 L192.424,111.686 L189.053,110.141 L185.964,108.355 L183.193,106.349 L180.777,104.148 L178.746,101.782" class="s0 sharp" />
    <path id="e27" d="M178.746,101.782 L178.733,101.762 L178.721,101.742 L178.708,101.722 L178.696,101.702 L178.683,101.683 L178.671,101.663 L178.658,101.643 L178.646,101.623 L178.633,101.603 L178.621,101.583 L178.609,101.563 L178.596,101.543 L178.584,101.523 L178.572,101.504" class="s0 sharp" />
    <path id="e28" d="M178.572,101.504 L178.572,71.6893" class="s0 sharp hidden" />
    <path id="e29" d="M178.572,101.504 L178.563,101.524 L178.554,101.544 L178.544,101.565 L178.535,101.585 L178.526,101.606 L178.517,101.626 L178.507,101.647 L178.498,101.667 L178.489,101.688 L178.479,101.708 L178.47,101.729 L178.461,101.749 L178.451,101.77 L178.442,101.79" class="s0 sharp" />
    <path id="e30" d="M193.656,89.3583 L193.548,89.2109 L193.443,89.0627 L193.341,88.9136 L193.241,88.7637 L193.144,88.613 L193.05,88.4614 L192.959,88.3092 L192.871,88.1561 L192.786,88.0024 L192.703,87.8479 L192.624,87.6928 L192.547,87.537 L192.473,87.3807 L192.402,87.2237" class="s0 sharp" />
    <path id="e31" d="M230.365,87.1809 L230.005,87.9168 L229.58,88.6373 L229.094,89.34 L228.546,90.0224 L227.939,90.6823 L227.275,91.3173 L226.556,91.9253 L225.785,92.5042 L224.965,93.052 L224.098,93.5667 L223.187,94.0467 L222.236,94.4903 L221.247,94.896 L220.224,95.2623" class="s0 sharp" />
    <path id="e32" d="M124.844,90.3762 L124.734,90.1165 L124.631,89.8554 L124.537,89.593 L124.451,89.3293 L124.373,89.0645 L124.303,88.7987 L124.241,88.532 L124.187,88.2646 L124.142,87.9964 L124.105,87.7277 L124.076,87.4585 L124.055,87.189 L124.043,86.9193 L124.039,86.6494" class="s0 sharp hidden" />
    <path id="e33" d="M163.643,86.6483 L163.638,86.9181 L163.626,87.1878 L163.605,87.4574 L163.576,87.7265 L163.539,87.9952 L163.494,88.2634 L163.44,88.5309 L163.378,88.7976 L163.308,89.0634 L163.23,89.3282 L163.144,89.5918 L163.05,89.8543 L162.947,90.1154 L162.837,90.375" class="s0 sharp hidden" />
    <path id="e34" d="M126.127,100.005 L126.127,92.5511" class="s0 sewn" />
    <path id="e35" d="M152.696,105.91 L150.657,106.497 L148.533,106.928 L146.349,107.197 L144.134,107.302 L141.915,107.241 L139.72,107.015 L137.577,106.626 L135.513,106.08 L133.554,105.383 L131.724,104.544 L130.046,103.574 L128.542,102.484 L127.23,101.29 L126.127,100.005" class="s0 sharp" />
    <path id="e36" d="M107.367,86.8089 L107.367,64.287" class="s0 outline hidden" />
    <path id="e37" d="M109.012,56.4799 L105.257,57.5609 L101.343,58.3547 L97.3215,58.8514 L93.2414,59.0448 L89.1546,58.9323 L85.1123,58.5156 L81.1654,57.7997 L77.3636,56.7936 L73.7547,55.5101 L70.384,53.9653 L67.294,52.1786 L64.5235,50.1725 L62.1074,47.9722 L60.076,45.6053" class="s0 sharp hidden" />
    <path id="e38" d="M60.076,45.6053 L60.0755,45.6046 L60.0749,45.6038 L60.0744,45.6031 L60.0738,45.6024 L60.0732,45.6016 L60.0727,45.6009 L60.0721,45.6001 L60.0716,45.5994 L60.071,45.5986 L60.0705,45.5979 L60.0699,45.5972 L60.0694,45.5964 L60.0688,45.5957 L60.0682,45.5949" class="s0 sharp hidden" />
    <path id="e39" d="M59.9424,45.6369 L60.0682,45.5949" class="s0 sharp hidden" />
    <path id="e40" d="M247.84,80.5571 L247.84,61.0935" class="s0 outline hidden" />
    <path id="e41" d="M192.402,87.2237 L192.292,86.964 L192.19,86.7029 L192.095,86.4405 L192.009,86.1768 L191.931,85.912 L191.861,85.6462 L191.799,85.3795 L191.746,85.112 L191.7,84.8439 L191.663,84.5752 L191.634,84.306 L191.614,84.0365 L191.601,83.7667 L191.597,83.4969" class="s0 sharp hidden" />
    <path id="e42" d="M231.17,83.4542 L231.166,83.724 L231.154,83.9938 L231.133,84.2633 L231.104,84.5324 L231.067,84.8012 L231.022,85.0693 L230.968,85.3368 L230.906,85.6035 L230.836,85.8693 L230.758,86.1341 L230.672,86.3978 L230.578,86.6602 L230.475,86.9213 L230.365,87.1809" class="s0 sharp hidden" />
    <path id="e43" d="M220.224,102.716 L218.185,103.303 L216.061,103.734 L213.877,104.003 L211.662,104.108 L209.443,104.047 L207.248,103.821 L205.106,103.432 L203.042,102.886 L201.082,102.189 L199.252,101.35 L197.575,100.38 L196.07,99.2913 L194.759,98.0968 L193.656,96.8118" class="s0 sharp" />
    <path id="e44" d="M193.656,96.8118 L193.656,89.3583" class="s0 sharp" />
    <path id="e45" d="M161.551,80.7431 L161.835,81.1374 L162.099,81.5377 L162.343,81.9437 L162.566,82.3548 L162.769,82.7706 L162.951,83.1907 L163.113,83.6145 L163.253,84.0417 L163.372,84.4717 L163.469,84.9042 L163.545,85.3385 L163.599,85.7743 L163.632,86.211 L163.643,86.6483" class="s0 sharp hidden" />
    <path id="e46" d="M161.527,80.7162 L161.529,80.7182 L161.531,80.7201 L161.532,80.722 L161.534,80.7239 L161.536,80.7258 L161.537,80.7278 L161.539,80.7297 L161.541,80.7316 L161.543,80.7335 L161.544,80.7354 L161.546,80.7374 L161.548,80.7393 L161.549,80.7412 L161.551,80.7431" class="s0 sharp hidden" />
    <path id="e47" d="M126.127,100.005 L125.844,99.6106 L125.58,99.2104 L125.337,98.8047 L125.114,98.3938 L124.911,97.9783 L124.729,97.5584 L124.568,97.1348 L124.428,96.7079 L124.309,96.2781 L124.212,95.846 L124.136,95.4119 L124.082,94.9764 L124.049,94.5399 L124.039,94.103" class="s0 sharp" />
    <path id="e48" d="M124.039,94.103 L124.039,86.6494" class="s0 outline hidden" />
    <path id="e49" d="M163.643,94.1018 L163.581,95.1447 L163.395,96.1811 L163.088,97.2045 L162.66,98.2086 L162.115,99.1869 L161.455,100.133 L160.685,101.042 L159.81,101.908 L158.835,102.725 L157.767,103.487 L156.611,104.191 L155.375,104.833 L154.068,105.407 L152.696,105.91" class="s0 sharp" />
    <path id="e50" d="M163.643,94.1018 L163.643,86.6483" class="s0 outline hidden" />
    <path id="e51" d="M132.305,117.169 L129.268,116.392 L126.347,115.438 L123.565,114.314 L120.944,113.029 L118.506,111.594 L116.269,110.02 L114.251,108.319 L112.469,106.505 L110.936,104.592 L109.664,102.596 L108.665,100.532 L107.946,98.417 L107.512,96.2677 L107.367,94.1013" class="s0 sharp" />
    <path id="e52" d="M107.367,94.1013 L107.367,86.8089" class="s0 outline" />
    <path id="e53" d="M191.597,83.4969 L191.602,83.1982 L191.617,82.8997 L191.643,82.6014 L191.678,82.3037 L191.724,82.0065 L191.779,81.7101 L191.845,81.4146 L191.921,81.1202 L192.006,80.827 L192.102,80.5352 L192.207,80.2449 L192.322,79.9562 L192.447,79.6694 L192.582,79.3845" class="s0 sharp hidden" />
    <path id="e54" d="M229.08,77.5502 L229.363,77.9444 L229.627,78.3447 L229.871,78.7506 L230.094,79.1616 L230.297,79.5773 L230.48,79.9973 L230.641,80.4211 L230.781,80.8482 L230.9,81.2781 L230.997,81.7105 L231.073,82.1447 L231.127,82.5804 L231.16,83.017 L231.17,83.4542" class="s0 sharp hidden" />
    <path id="e55" d="M193.656,96.8118 L193.376,96.42 L193.117,96.0223 L192.877,95.6191 L192.656,95.2109 L192.457,94.7981 L192.277,94.3811 L192.119,93.9604 L191.981,93.5365 L191.864,93.1098 L191.768,92.6807 L191.693,92.2498 L191.64,91.8175 L191.608,91.3842 L191.597,90.9505" class="s0 sharp" />
    <path id="e56" d="M191.597,90.9505 L191.597,83.4969" class="s0 outline hidden" />
    <path id="e57" d="M231.17,90.9077 L231.109,91.9507 L230.923,92.9871 L230.616,94.0105 L230.188,95.0145 L229.642,95.9929 L228.983,96.9395 L228.213,97.8484 L227.338,98.7138 L226.363,99.5305 L225.294,100.293 L224.139,100.997 L222.903,101.639 L221.595,102.213 L220.224,102.716" class="s0 sharp" />
    <path id="e58" d="M231.17,90.9077 L231.17,83.4542" class="s0 outline hidden" />
    <path id="e59" d="M247.84,90.9077 L247.726,92.8286 L247.385,94.7375 L246.819,96.6224 L246.031,98.4716 L245.026,100.274 L243.811,102.017 L242.393,103.691 L240.781,105.285 L238.986,106.789 L237.018,108.194 L234.889,109.491 L232.613,110.672 L230.205,111.729 L227.679,112.656" class="s0 sharp" />
    <path id="e60" d="M247.84,90.9077 L247.84,80.5571" class="s0 outline" />
    <path id="e61" d="M290.325,34.6917 L288.816,37.2261 L286.891,39.6319 L284.573,41.8788 L281.894,43.9387 L278.885,45.7856 L275.585,47.3963 L272.035,48.7506 L268.28,49.8313 L264.367,50.625 L260.345,51.1216 L256.265,51.3149 L252.179,51.2025 L248.137,50.7858 L244.19,50.0699" class="s0 sharp hidden" />
    <path id="e62" d="M124.039,86.6494 L124.1,85.6091 L124.284,84.5752 L124.59,83.5542 L125.016,82.5525 L125.559,81.5763 L126.215,80.6316 L126.982,79.7243 L127.853,78.8601 L128.823,78.0444 L129.887,77.2821 L131.038,76.5782 L132.268,75.9368 L133.57,75.3621 L134.936,74.8576" class="s0 sharp hidden" />
    <path id="e63" d="M161.551,88.1967 L161.835,88.591 L162.099,88.9913 L162.343,89.3972 L162.566,89.8083 L162.769,90.2242 L162.951,90.6442 L163.113,91.0681 L163.253,91.4953 L163.372,91.9253 L163.469,92.3577 L163.545,92.7921 L163.599,93.2279 L163.632,93.6646 L163.643,94.1018" class="s0 sharp" />
    <path id="e64" d="M161.551,88.1967 L161.551,80.7431" class="s0 sharp hidden" />
    <path id="e65" d="M161.527,88.1698 L161.527,80.7162" class="s0 sharp" />
    <path id="e66" d="M161.527,88.1698 L161.529,88.1717 L161.531,88.1736 L161.532,88.1756 L161.534,88.1775 L161.536,88.1794 L161.537,88.1813 L161.539,88.1832 L161.541,88.1852 L161.543,88.1871 L161.544,88.189 L161.546,88.1909 L161.548,88.1928 L161.549,88.1948 L161.551,88.1967" class="s0 sharp" />
    <path id="e67" d="M192.582,86.838 L192.582,79.3845" class="s0 sharp" />
    <path id="e68" d="M191.597,90.9505 L191.602,90.6518 L191.617,90.3532 L191.643,90.055 L191.678,89.7572 L191.724,89.4601 L191.779,89.1637 L191.845,88.8682 L191.921,88.5738 L192.006,88.2806 L192.102,87.9887 L192.207,87.6984 L192.322,87.4098 L192.447,87.1229 L192.582,86.838" class="s0 sharp" />
    <path id="e69" d="M109.238,86.2141 L109.238,56.5981" class="s0 sharp hidden" />
    <path id="e70" d="M109.238,86.4124 L109.238,86.2141" class="s0 sharp" />
    <path id="e71" d="M107.367,94.1013 L107.376,93.5425 L107.405,92.9841 L107.453,92.4262 L107.521,91.8692 L107.607,91.3134 L107.713,90.7591 L107.837,90.2065 L107.981,89.656 L108.144,89.1079 L108.325,88.5624 L108.526,88.0198 L108.745,87.4804 L108.982,86.9445 L109.238,86.4124" class="s0 sharp" />
    <path id="e72" d="M109.012,86.2942 L109.012,56.4799" class="s0 sharp hidden" />
    <path id="e73" d="M109.238,86.4124 L109.249,86.3941 L109.26,86.3759 L109.272,86.3576 L109.283,86.3394 L109.294,86.3211 L109.305,86.3029 L109.317,86.2847 L109.328,86.2665 L109.339,86.2483 L109.351,86.2301 L109.362,86.2119 L109.373,86.1937 L109.385,86.1755 L109.396,86.1573" class="s0 sharp" />
    <path id="e74" d="M109.396,86.1573 L109.396,56.3431" class="s0 sharp hidden" />
    <path id="e75" d="M109.396,86.1573 L109.369,86.1672 L109.341,86.1771 L109.314,86.1869 L109.287,86.1967 L109.259,86.2066 L109.232,86.2164 L109.204,86.2261 L109.177,86.2359 L109.149,86.2457 L109.122,86.2554 L109.094,86.2651 L109.067,86.2748 L109.039,86.2845 L109.012,86.2942" class="s0 sharp" />
    <path id="e76" d="M229.08,85.0038 L229.363,85.398 L229.627,85.7983 L229.871,86.2041 L230.094,86.6151 L230.297,87.0309 L230.48,87.4508 L230.641,87.8746 L230.781,88.3017 L230.9,88.7317 L230.997,89.164 L231.073,89.5983 L231.127,90.034 L231.16,90.4706 L231.17,90.9077" class="s0 sharp" />
    <path id="e77" d="M229.08,85.0038 L229.08,77.5502" class="s0 sharp hidden" />
    <path id="e78" d="M217.566,70.9503 L218.613,71.2011 L219.638,71.4907 L220.637,71.8183 L221.606,72.1827 L222.543,72.5829 L223.446,73.0176 L224.31,73.4853 L225.133,73.9847 L225.913,74.5141 L226.647,75.0719 L227.332,75.6562 L227.968,76.2654 L228.551,76.8974 L229.08,77.5502" class="s0 sharp hidden" />
    <path id="e79" d="M124.039,94.103 L124.1,93.0626 L124.284,92.0288 L124.59,91.0078 L125.016,90.0061 L125.559,89.0298 L126.215,88.0851 L126.982,87.1779 L127.853,86.3137 L128.823,85.4979 L129.887,84.7357 L131.038,84.0317 L132.268,83.3904 L133.57,82.8157 L134.936,82.3112" class="s0 sharp" />
    <path id="e80" d="M134.936,82.3112 L134.936,74.8576" class="s0 sharp hidden" />
    <path id="e81" d="M101.557,68.9006 L100.214,69.3071 L98.8305,69.6459 L97.4125,69.9152 L95.9685,70.1133 L94.5063,70.2393 L93.0341,70.2924 L91.5601,70.2724 L90.0924,70.1793 L88.6391,70.0136 L87.2084,69.7763 L85.8081,69.4688 L84.446,69.0926 L83.1297,68.6499 L81.8664,68.1431" class="s0 sharp" />
    <path id="e82" d="M292.197,27.002 L292.187,27.5608 L292.158,28.1193 L292.11,28.6772 L292.043,29.2343 L291.956,29.7901 L291.85,30.3445 L291.726,30.8971 L291.582,31.4477 L291.419,31.9959 L291.237,32.5415 L291.037,33.0842 L290.818,33.6236 L290.581,34.1596 L290.325,34.6917" class="s0 sharp hidden" />
    <path id="e83" d="M243.99,79.8293 L243.99,50.2196" class="s0 sharp hidden" />
    <path id="e84" d="M243.99,80.0338 L243.99,79.8293" class="s0 sharp" />
    <path id="e85" d="M243.99,80.0338 L244.512,80.7599 L244.998,81.4971 L245.447,82.2446 L245.858,83.0016 L246.232,83.7673 L246.568,84.5408 L246.865,85.3213 L247.123,86.108 L247.341,86.8999 L247.521,87.6961 L247.66,88.496 L247.76,89.2984 L247.82,90.1026 L247.84,90.9077" class="s0 sharp" />
    <path id="e86" d="M244.19,79.8842 L244.19,50.0699" class="s0 sharp hidden" />
    <path id="e87" d="M244.19,79.8842 L244.158,79.8756 L244.127,79.8669 L244.095,79.8583 L244.064,79.8496 L244.032,79.841 L244.001,79.8322 L243.969,79.8235 L243.938,79.8148 L243.906,79.806 L243.875,79.7972 L243.843,79.7884 L243.812,79.7796 L243.78,79.7708 L243.749,79.7619" class="s0 sharp" />
    <path id="e88" d="M243.749,79.7619 L243.749,49.9477" class="s0 sharp hidden" />
    <path id="e89" d="M243.749,79.7619 L243.766,79.7813 L243.784,79.8006 L243.801,79.82 L243.818,79.8394 L243.836,79.8588 L243.853,79.8782 L243.87,79.8976 L243.887,79.917 L243.904,79.9365 L243.922,79.9559 L243.939,79.9754 L243.956,79.9949 L243.973,80.0143 L243.99,80.0338" class="s0 sharp" />
    <path id="e90" d="M217.566,78.4039 L217.566,70.9503" class="s0 sharp hidden" />
    <path id="e91" d="M217.566,78.4039 L218.613,78.6547 L219.638,78.9443 L220.637,79.2719 L221.606,79.6363 L222.543,80.0365 L223.446,80.4711 L224.31,80.9389 L225.133,81.4382 L225.913,81.9676 L226.647,82.5254 L227.332,83.1098 L227.968,83.7189 L228.551,84.3509 L229.08,85.0038" class="s0 sharp" />
    <path id="e92" d="M81.8664,68.1431 L81.2487,67.8628 L80.6473,67.567 L80.0631,67.2564 L79.4969,66.9313 L78.9495,66.5922 L78.4217,66.2395 L77.9142,65.8739 L77.4277,65.4957 L76.963,65.1056 L76.5207,64.704 L76.1015,64.2916 L75.7059,63.869 L75.3344,63.4367 L74.9878,62.9954" class="s0 sharp hidden" />
    <path id="e93" d="M74.9878,62.9954 L74.9872,62.9947 L74.9867,62.9939 L74.9861,62.9932 L74.9855,62.9924 L74.985,62.9917 L74.9844,62.991 L74.9839,62.9902 L74.9833,62.9895 L74.9828,62.9887 L74.9822,62.988 L74.9817,62.9873 L74.9811,62.9865 L74.9806,62.9858 L74.98,62.985" class="s0 sharp hidden" />
    <path id="e94" d="M101.557,76.3542 L101.557,68.9006" class="s0 sewn" />
    <path id="e95" d="M59.9424,75.4511 L59.9424,45.6369" class="s0 sharp hidden" />
    <path id="e96" d="M60.076,75.4196 L60.076,45.6053" class="s0 sewn hidden" />
    <path id="e97" d="M109.012,86.2942 L105.257,87.3751 L101.343,88.1689 L97.3215,88.6656 L93.2414,88.859 L89.1546,88.7466 L85.1123,88.3298 L81.1654,87.6139 L77.3636,86.6079 L73.7547,85.3244 L70.384,83.7796 L67.294,81.9929 L64.5235,79.9867 L62.1074,77.7864 L60.076,75.4196" class="s0 sharp" />
    <path id="e98" d="M60.076,75.4196 L60.0755,75.4188 L60.0749,75.4181 L60.0744,75.4173 L60.0738,75.4166 L60.0732,75.4159 L60.0727,75.4151 L60.0721,75.4144 L60.0716,75.4136 L60.071,75.4129 L60.0705,75.4121 L60.0699,75.4114 L60.0694,75.4107 L60.0688,75.4099 L60.0682,75.4092" class="s0 sharp" />
    <path id="e99" d="M59.9424,75.4511 L60.0682,75.4092" class="s0 sharp" />
    <path id="e100" d="M60.0682,45.5949 L60.0682,75.4092" class="s0 sharp hidden" />
    <path id="e101" d="M111.486,61.2671 L111.106,61.9628 L110.667,62.6431 L110.172,63.306 L109.622,63.9493 L109.019,64.5711 L108.364,65.1694 L107.66,65.7422 L106.909,66.2878 L106.114,66.8045 L105.276,67.2906 L104.398,67.7447 L103.484,68.1652 L102.536,68.5509 L101.557,68.9006" class="s0 sharp" />
    <path id="e102" d="M74.9878,70.436 L74.9878,62.9954" class="s0 sewn hidden" />
    <path id="e103" d="M101.557,76.3542 L99.5178,76.941 L97.3932,77.3719 L95.2095,77.6415 L92.9942,77.7464 L90.7753,77.6853 L88.5806,77.4589 L86.4377,77.0702 L84.3735,76.5239 L82.4142,75.8269 L80.5841,74.9881 L78.9065,74.018 L77.4023,72.9287 L76.0906,71.7341 L74.9878,70.449" class="s0 sharp" />
    <path id="e104" d="M74.9878,70.449 L74.9878,70.436" class="s0 sewn" />
    <path id="e105" d="M74.9878,70.449 L74.9872,70.4482 L74.9867,70.4475 L74.9861,70.4467 L74.9855,70.446 L74.985,70.4453 L74.9844,70.4445 L74.9839,70.4438 L74.9833,70.443 L74.9828,70.4423 L74.9822,70.4416 L74.9817,70.4408 L74.9811,70.4401 L74.9806,70.4393 L74.98,70.4386" class="s0 sharp" />
    <path id="e106" d="M74.98,62.985 L74.98,70.4386" class="s0 sharp hidden" />
    <path id="e107" d="M264.579,61.171 L262.545,61.7559 L260.427,62.1859 L258.25,62.4555 L256.041,62.5613 L253.828,62.5021 L251.639,62.2786 L249.502,61.8935 L247.442,61.3518 L245.485,60.66 L243.657,59.827 L241.98,58.8632 L240.474,57.7805 L239.16,56.5925 L238.052,55.3141" class="s0 sharp" />
    <path id="e108" d="M111.486,68.7207 L111.486,61.2671" class="s0 sharp" />
    <path id="e109" d="M111.486,68.7207 L111.106,69.4163 L110.667,70.0967 L110.172,70.7596 L109.622,71.4029 L109.019,72.0247 L108.364,72.6229 L107.66,73.1957 L106.909,73.7414 L106.114,74.2581 L105.276,74.7442 L104.398,75.1982 L103.484,75.6188 L102.536,76.0045 L101.557,76.3542" class="s0 sharp" />
    <path id="e110" d="M264.579,68.6245 L264.579,61.171" class="s0 sewn" />
    <path id="e111" d="M174.349,55.0731 L161.527,80.7162" class="s0 sharp" />
    <path id="e112" d="M192.582,79.3845 L174.349,55.0731" class="s0 sharp" />
    <path id="e113" d="M287.154,14.666 L287.835,15.4711 L288.469,16.2928 L289.055,17.13 L289.594,17.9815 L290.084,18.846 L290.524,19.7223 L290.913,20.6091 L291.252,21.5051 L291.54,22.409 L291.776,23.3196 L291.96,24.2356 L292.091,25.1555 L292.17,26.078 L292.197,27.002" class="s0 sharp" />
    <path id="e114" d="M274.721,53.089 L274.361,53.825 L273.937,54.5456 L273.45,55.2483 L272.902,55.9308 L272.295,56.5908 L271.631,57.2259 L270.912,57.8339 L270.141,58.4128 L269.321,58.9606 L268.453,59.4754 L267.542,59.9554 L266.591,60.399 L265.602,60.8047 L264.579,61.171" class="s0 sharp" />
    <path id="e115" d="M290.325,64.506 L288.816,67.0403 L286.891,69.4461 L284.573,71.6931 L281.894,73.753 L278.885,75.5999 L275.585,77.2106 L272.035,78.5648 L268.28,79.6456 L264.367,80.4393 L260.345,80.9359 L256.265,81.1292 L252.179,81.0168 L248.137,80.6 L244.19,79.8842" class="s0 sharp" />
    <path id="e116" d="M290.325,64.506 L290.325,34.6917" class="s0 sewn hidden" />
    <path id="e117" d="M275.527,49.3623 L275.523,49.6321 L275.51,49.9018 L275.49,50.1714 L275.461,50.4405 L275.424,50.7092 L275.378,50.9774 L275.324,51.2449 L275.263,51.5116 L275.193,51.7774 L275.115,52.0422 L275.028,52.3058 L274.934,52.5683 L274.832,52.8294 L274.721,53.089" class="s0 sharp hidden" />
    <path id="e118" d="M264.579,68.6245 L262.545,69.2095 L260.427,69.6395 L258.25,69.909 L256.041,70.0149 L253.828,69.9557 L251.639,69.7321 L249.502,69.3471 L247.442,68.8053 L245.485,68.1136 L243.657,67.2806 L241.98,66.3167 L240.474,65.234 L239.16,64.0461 L238.052,62.7677" class="s0 sharp" />
    <path id="e119" d="M238.052,62.7677 L238.052,55.3141" class="s0 sharp" />
    <path id="e120" d="M134.936,74.8576 L147.781,49.169" class="s0 sharp hidden" />
    <path id="e121" d="M147.781,49.169 L111.486,61.2671" class="s0 sharp" />
    <path id="e122" d="M174.349,62.5266 L174.349,55.0731" class="s0 sharp" />
    <path id="e123" d="M192.582,86.838 L174.349,62.5266" class="s0 sharp" />
    <path id="e124" d="M174.349,62.5266 L161.527,88.1698" class="s0 sharp" />
    <path id="e125" d="M111.314,46.7535 L111.314,46.7536" class="s0 sharp" />
    <path id="e126" d="M238.052,55.3141 L199.396,46.7239" class="s0 sharp" />
    <path id="e127" d="M199.396,46.7239 L217.566,70.9503" class="s0 sharp hidden" />
    <path id="e128" d="M267.256,3.93415 L269.013,4.35798 L270.734,4.84119 L272.416,5.38251 L274.054,5.98052 L275.644,6.63366 L277.182,7.3402 L278.664,8.0983 L280.085,8.90597 L281.443,9.7611 L282.733,10.6614 L283.952,11.6046 L285.097,12.5882 L286.166,13.6095 L287.154,14.666" class="s0 sharp hidden" />
    <path id="e129" d="M266.804,3.85787 L266.836,3.86319 L266.869,3.86853 L266.901,3.87389 L266.933,3.87927 L266.966,3.88467 L266.998,3.89009 L267.03,3.89553 L267.063,3.90099 L267.095,3.90646 L267.127,3.91196 L267.16,3.91748 L267.192,3.92302 L267.224,3.92857 L267.256,3.93415" class="s0 sharp hidden" />
    <path id="e130" d="M267.247,3.73501 L267.215,3.74391 L267.184,3.7528 L267.152,3.76166 L267.121,3.77051 L267.089,3.77933 L267.057,3.78814 L267.026,3.79692 L266.994,3.80569 L266.962,3.81444 L266.931,3.82316 L266.899,3.83187 L266.867,3.84056 L266.836,3.84922 L266.804,3.85787" class="s0 sharp hidden" />
    <path id="e131" d="M273.436,43.4583 L273.72,43.8525 L273.984,44.2528 L274.227,44.6586 L274.451,45.0697 L274.654,45.4854 L274.836,45.9054 L274.997,46.3291 L275.137,46.7562 L275.256,47.1862 L275.353,47.6185 L275.429,48.0528 L275.483,48.4885 L275.516,48.9251 L275.527,49.3623" class="s0 sharp hidden" />
    <path id="e132" d="M292.197,56.8162 L292.187,57.375 L292.158,57.9335 L292.11,58.4915 L292.043,59.0485 L291.956,59.6044 L291.85,60.1588 L291.726,60.7114 L291.582,61.262 L291.419,61.8102 L291.237,62.3558 L291.037,62.8984 L290.818,63.4379 L290.581,63.9738 L290.325,64.506" class="s0 sharp" />
    <path id="e133" d="M292.197,56.8162 L292.197,27.002" class="s0 outline" />
    <path id="e134" d="M275.527,56.8158 L275.465,57.8589 L275.28,58.8954 L274.972,59.9189 L274.544,60.923 L273.999,61.9014 L273.339,62.8481 L272.569,63.757 L271.694,64.6225 L270.719,65.4393 L269.65,66.2021 L268.494,66.9062 L267.258,67.5473 L265.95,68.1213 L264.579,68.6245" class="s0 sharp" />
    <path id="e135" d="M275.527,56.8158 L275.527,49.3623" class="s0 outline hidden" />
    <path id="e136" d="M134.936,82.3112 L147.781,56.6226" class="s0 sharp" />
    <path id="e137" d="M147.781,56.6226 L111.486,68.7207" class="s0 sharp" />
    <path id="e138" d="M147.781,56.6226 L147.781,49.169" class="s0 sharp" />
    <path id="e139" d="M111.314,54.2072 L111.314,46.7536" class="s0 sharp" />
    <path id="e140" d="M111.314,54.207 L111.314,46.7535" class="s0 sharp" />
    <path id="e141" d="M111.314,54.207 L111.314,54.2072" class="s0 sharp" />
    <path id="e142" d="M199.396,54.1775 L199.396,46.7239" class="s0 sharp" />
    <path id="e143" d="M238.052,62.7677 L199.396,54.1775" class="s0 sharp" />
    <path id="e144" d="M199.396,54.1775 L217.566,78.4039" class="s0 sharp" />
    <path id="e145" d="M246.806,37.5792 L246.81,37.5775 L246.815,37.5757 L246.819,37.5739 L246.823,37.5722 L246.827,37.5704 L246.832,37.5687 L246.836,37.5669 L246.84,37.5651 L246.845,37.5634 L246.849,37.5616 L246.853,37.5599 L246.858,37.5581 L246.862,37.5563 L246.866,37.5546" class="s0 sharp hidden" />
    <path id="e146" d="M273.436,50.9119 L273.72,51.3061 L273.984,51.7063 L274.227,52.1122 L274.451,52.5232 L274.654,52.939 L274.836,53.3589 L274.997,53.7827 L275.137,54.2098 L275.256,54.6398 L275.353,55.0721 L275.429,55.5064 L275.483,55.942 L275.516,56.3787 L275.527,56.8158" class="s0 sharp" />
    <path id="e147" d="M273.436,50.9119 L273.436,43.4583" class="s0 sewn hidden" />
    <path id="e148" d="M111.314,46.7536 C95.3205,52.0849,75.8559,47.7638,67.8551,37.096" class="s0 sharp" />
    <path id="e149" d="M246.866,37.5546 L248.905,36.9676 L251.03,36.5366 L253.213,36.2668 L255.429,36.1618 L257.648,36.2227 L259.842,36.449 L261.985,36.8376 L264.05,37.3838 L266.009,38.0806 L267.839,38.9193 L269.517,39.8894 L271.021,40.9786 L272.333,42.1732 L273.436,43.4583" class="s0 sharp hidden" />
    <path id="e150" d="M20.4359,-7.03846 L59.9424,45.6369" class="s0 sharp hidden" />
    <path id="e151" d="M154.649,32.3087 L140.296,37.0931" class="s0 sharp" />
    <path id="e152" d="M246.806,45.0328 L246.806,37.5792" class="s0 sharp hidden" />
    <path id="e153" d="M246.806,45.0328 L246.81,45.031 L246.815,45.0293 L246.819,45.0275 L246.823,45.0257 L246.827,45.024 L246.832,45.0222 L246.836,45.0205 L246.84,45.0187 L246.845,45.0169 L246.849,45.0152 L246.853,45.0134 L246.858,45.0117 L246.862,45.0099 L246.866,45.0081" class="s0 sharp" />
    <path id="e154" d="M246.866,45.0081 L246.866,37.5546" class="s0 sharp hidden" />
    <path id="e155" d="M84.8299,31.4376 C88.1437,35.856,96.1991,37.6461,102.827,35.4369" class="s0 sharp hidden" />
    <path id="e156" d="M157.267,31.436 L154.649,32.3087" class="s0 sharp hidden" />
    <path id="e157" d="M67.8551,37.096 C66.4192,35.1816,65.4507,33.1926,64.9205,31.1866" class="s0 sharp" />
    <path id="e158" d="M128.747,31.1462 C127.033,37.6608,120.868,43.5689,111.314,46.7535" class="s0 sharp" />
    <path id="e159" d="M67.8551,44.5496 L67.8551,37.096" class="s0 smooth" />
    <path id="e160" d="M111.314,54.2072 C95.3205,59.5384,75.8559,55.2174,67.8551,44.5496" class="s0 sharp" />
    <path id="e161" d="M140.296,44.5467 L140.296,37.0931" class="s0 sharp" />
    <path id="e162" d="M246.866,45.0081 L248.905,44.4212 L251.03,43.9901 L253.213,43.7204 L255.429,43.6153 L257.648,43.6763 L259.842,43.9025 L261.985,44.2912 L264.05,44.8373 L266.009,45.5342 L267.839,46.3729 L269.517,47.3429 L271.021,48.4321 L272.333,49.6268 L273.436,50.9119" class="s0 sharp" />
    <path id="e163" d="M102.827,42.8904 L102.827,35.4369" class="s0 smooth hidden" />
    <path id="e164" d="M208.252,29.0117 L246.806,37.5792" class="s0 sharp hidden" />
    <path id="e165" d="M64.9205,31.1866 C64.5931,29.9479,64.4328,28.7028,64.4328,27.4647" class="s0 sharp hidden" />
    <path id="e166" d="M83.4116,27.4451 C83.4116,28.7887,83.8671,30.154,84.8299,31.4376" class="s0 sharp hidden" />
    <path id="e167" d="M102.827,35.4369 C107.531,33.8687,110.254,30.7073,110.254,27.4245" class="s0 sharp hidden" />
    <path id="e168" d="M129.235,27.4149 C129.235,28.6707,129.07,29.9192,128.747,31.1462" class="s0 sharp hidden" />
    <path id="e169" d="M84.8299,38.8911 L84.8299,31.4376" class="s0 smooth hidden" />
    <path id="e170" d="M84.8299,38.8911 C88.1437,43.3095,96.1991,45.0996,102.827,42.8904" class="s0 sharp" />
    <path id="e171" d="M157.267,38.8895 L157.267,31.436" class="s0 sharp hidden" />
    <path id="e172" d="M157.267,38.8895 L140.296,44.5467" class="s0 sharp" />
    <path id="e173" d="M110.254,30.4165 L110.254,27.4245" class="s0 outline hidden" />
    <path id="e174" d="M84.0997,24.6176 C83.6474,25.5232,83.4116,26.4785,83.4116,27.4451" class="s0 sharp" />
    <path id="e175" d="M84.1066,24.6152 L84.0997,24.6176" class="s0 sharp" />
    <path id="e176" d="M110.254,27.4245 C110.254,26.0816,109.798,24.7183,108.836,23.4355" class="s0 sharp hidden" />
    <path id="e177" d="M208.252,36.4653 L246.806,45.0328" class="s0 sharp" />
    <path id="e178" d="M208.252,36.4653 L208.252,29.0117" class="s0 sharp" />
    <path id="e179" d="M287.408,-18.0132 L287.294,-16.0923 L286.953,-14.1834 L286.387,-12.2985 L285.599,-10.4493 L284.594,-8.64734 L283.379,-6.90394 L281.961,-5.22998 L280.349,-3.63592 L278.554,-2.13173 L276.586,-0.726802 L274.457,0.570072 L272.181,1.75079 L269.773,2.80797 L267.247,3.73501" class="s0 sharp hidden" />
    <path id="e180" d="M16.3731,-18.2728 C16.3731,-14.5375,17.6845,-10.707,20.4359,-7.03846" class="s0 sharp hidden" />
    <path id="e181" d="M64.4328,34.9183 L64.4328,27.4647" class="s0 outline hidden" />
    <path id="e182" d="M67.8551,44.5496 C65.5326,41.453,64.4328,38.1612,64.4328,34.9183" class="s0 sharp" />
    <path id="e183" d="M83.4116,34.8987 C83.4116,36.2422,83.8671,37.6075,84.8299,38.8911" class="s0 sharp" />
    <path id="e184" d="M83.4116,34.8987 L83.4116,27.4451" class="s0 outline" />
    <path id="e185" d="M102.827,42.8904 C107.531,41.3223,110.254,38.1608,110.254,34.8781" class="s0 sharp" />
    <path id="e186" d="M110.254,34.8781 L110.254,30.4165" class="s0 outline" />
    <path id="e187" d="M129.235,34.8685 L129.235,27.4149" class="s0 outline hidden" />
    <path id="e188" d="M129.235,34.8685 C129.235,42.7923,122.667,50.4227,111.314,54.207" class="s0 sharp" />
    <path id="e189" d="M64.4328,27.4647 C64.4328,25.1239,65.0058,22.8085,66.1055,20.6103" class="s0 sharp hidden" />
    <path id="e190" d="M267.256,33.546 L267.256,3.93415" class="s0 sharp hidden" />
    <path id="e191" d="M267.256,33.7484 L270.294,34.5252 L273.215,35.4793 L275.997,36.6032 L278.618,37.8879 L281.057,39.3231 L283.294,40.8975 L285.312,42.5985 L287.094,44.4126 L288.627,46.3254 L289.898,48.3216 L290.898,50.3854 L291.617,52.5004 L292.051,54.6497 L292.197,56.8162" class="s0 sharp" />
    <path id="e192" d="M267.256,33.7484 L267.256,33.546" class="s0 sharp" />
    <path id="e193" d="M266.804,33.6721 L266.804,3.85787" class="s0 sharp hidden" />
    <path id="e194" d="M266.804,33.6721 L266.836,33.6774 L266.869,33.6828 L266.901,33.6881 L266.933,33.6935 L266.966,33.6989 L266.998,33.7043 L267.03,33.7098 L267.063,33.7152 L267.095,33.7207 L267.127,33.7262 L267.16,33.7317 L267.192,33.7373 L267.224,33.7428 L267.256,33.7484" class="s0 sharp" />
    <path id="e195" d="M267.247,33.5492 L267.215,33.5582 L267.184,33.567 L267.152,33.5759 L267.121,33.5847 L267.089,33.5936 L267.057,33.6024 L267.026,33.6112 L266.994,33.6199 L266.962,33.6287 L266.931,33.6374 L266.899,33.6461 L266.867,33.6548 L266.836,33.6635 L266.804,33.6721" class="s0 sharp" />
    <path id="e196" d="M267.247,33.5492 L267.247,3.73501" class="s0 sharp hidden" />
    <path id="e197" d="M191.918,19.8858 L181.272,23.4345" class="s0 sharp" />
    <path id="e198" d="M90.8271,19.4374 C86.6836,21.4137,85.1891,22.4371,84.1066,24.6152" class="s0 sharp" />
    <path id="e199" d="M84.0997,32.0711 L84.0997,24.6176" class="s0 sharp" />
    <path id="e200" d="M84.0997,32.0711 C83.6474,32.9767,83.4116,33.9321,83.4116,34.8987" class="s0 sharp" />
    <path id="e201" d="M84.1066,32.0688 L84.0997,32.0711" class="s0 sharp" />
    <path id="e202" d="M84.1066,32.0688 L84.1066,24.6152" class="s0 sharp" />
    <path id="e203" d="M108.836,23.4355 L125.809,17.7778" class="s0 sharp hidden" />
    <path id="e204" d="M125.809,17.7778 C128.134,20.8768,129.235,24.1705,129.235,27.4149" class="s0 sharp hidden" />
    <path id="e205" d="M198.243,17.7773 L191.918,19.8858" class="s0 sharp hidden" />
    <path id="e206" d="M108.836,30.889 L108.836,23.4355" class="s0 sharp hidden" />
    <path id="e207" d="M110.254,34.8781 C110.254,33.5351,109.798,32.1718,108.836,30.889" class="s0 sharp" />
    <path id="e208" d="M181.272,30.888 L181.272,23.4345" class="s0 sharp" />
    <path id="e209" d="M244.737,16.8502 L208.252,29.0117" class="s0 sharp" />
    <path id="e210" d="M259.792,16.1555 L258.788,16.4642 L257.759,16.7351 L256.71,16.9672 L255.643,17.16 L254.561,17.3127 L253.468,17.425 L252.367,17.4964 L251.263,17.5267 L250.157,17.5159 L249.054,17.464 L247.957,17.3711 L246.87,17.2375 L245.795,17.0637 L244.737,16.8502" class="s0 sharp" />
    <path id="e211" d="M66.1055,28.0638 L66.1055,20.6103" class="s0 smooth hidden" />
    <path id="e212" d="M64.4328,34.9183 C64.4328,32.5775,65.0058,30.2621,66.1055,28.0638" class="s0 sharp" />
    <path id="e213" d="M90.8271,26.8909 L90.8271,19.4374" class="s0 sharp" />
    <path id="e214" d="M90.8271,26.8909 C86.6836,28.8673,85.1891,29.8907,84.1066,32.0688" class="s0 sharp" />
    <path id="e215" d="M125.809,25.2313 L125.809,17.7778" class="s0 sharp hidden" />
    <path id="e216" d="M108.836,30.889 L125.809,25.2313" class="s0 sharp" />
    <path id="e217" d="M125.809,25.2313 C128.134,28.3304,129.235,31.624,129.235,34.8685" class="s0 sharp" />
    <path id="e218" d="M198.243,25.2309 L198.243,17.7773" class="s0 sharp hidden" />
    <path id="e219" d="M198.243,25.2309 L181.272,30.888" class="s0 sharp" />
    <path id="e220" d="M283.557,-28.8883 L284.079,-28.1622 L284.565,-27.4249 L285.014,-26.6773 L285.426,-25.9202 L285.8,-25.1544 L286.135,-24.3808 L286.432,-23.6002 L286.69,-22.8135 L286.909,-22.0215 L287.089,-21.2252 L287.228,-20.4253 L287.328,-19.6227 L287.388,-18.8184 L287.408,-18.0132" class="s0 sharp" />
    <path id="e221" d="M283.549,-28.8987 L283.55,-28.898 L283.55,-28.8972 L283.551,-28.8965 L283.551,-28.8957 L283.552,-28.895 L283.553,-28.8942 L283.553,-28.8935 L283.554,-28.8928 L283.554,-28.892 L283.555,-28.8913 L283.555,-28.8905 L283.556,-28.8898 L283.556,-28.889 L283.557,-28.8883" class="s0 sharp" />
    <path id="e222" d="M283.549,-28.8987 L283.549,-28.8987" class="s0 sharp hidden" />
    <path id="e223" d="M244.737,24.3038 L208.252,36.4653" class="s0 sharp" />
    <path id="e224" d="M244.737,24.3038 L244.737,16.8502" class="s0 sharp" />
    <path id="e225" d="M259.792,23.6091 L258.788,23.9178 L257.759,24.1886 L256.71,24.4208 L255.643,24.6135 L254.561,24.7663 L253.468,24.8785 L252.367,24.9499 L251.263,24.9803 L250.157,24.9695 L249.054,24.9176 L247.957,24.8247 L246.87,24.6911 L245.795,24.5173 L244.737,24.3038" class="s0 sharp" />
    <path id="e226" d="M259.792,23.6091 L259.792,16.1555" class="s0 sharp" />
    <path id="e227" d="M20.4359,22.7758 L59.9424,75.4511" class="s0 sharp" />
    <path id="e228" d="M20.4359,22.7758 L20.4359,-7.03846" class="s0 smooth hidden" />
    <path id="e229" d="M66.1055,20.6103 C68.7264,15.3659,75.1774,11.5029,82.3415,8.12322" class="s0 sharp hidden" />
    <path id="e230" d="M82.3415,8.12322 L82.337,8.11726" class="s0 sharp hidden" />
    <path id="e231" d="M227.224,8.1155 L227.224,8.11561" class="s0 sharp" />
    <path id="e232" d="M269.933,8.07413 L269.573,8.80997 L269.148,9.53048 L268.661,10.2332 L268.114,10.9156 L267.507,11.5755 L266.843,12.2105 L266.124,12.8185 L265.353,13.3974 L264.533,13.9452 L263.666,14.4599 L262.755,14.9399 L261.804,15.3835 L260.815,15.7892 L259.792,16.1555" class="s0 sharp" />
    <path id="e233" d="M107.073,6.94857 C104.451,12.1919,98.4163,16.2136,90.8271,19.4374" class="s0 sharp" />
    <path id="e234" d="M62.9222,4.59496 L47.3679,9.77975" class="s0 sharp" />
    <path id="e235" d="M270.738,4.34735 L270.734,4.6172 L270.722,4.88693 L270.701,5.15644 L270.672,5.42561 L270.635,5.69434 L270.59,5.96249 L270.536,6.22998 L270.474,6.49668 L270.404,6.76248 L270.326,7.02727 L270.24,7.29094 L270.146,7.55338 L270.043,7.81448 L269.933,8.07413" class="s0 sharp hidden" />
    <path id="e236" d="M64.3427,4.12145 L62.9222,4.59496" class="s0 sharp hidden" />
    <path id="e237" d="M47.3679,9.77975 C45.9297,7.86218,44.9597,5.86995,44.429,3.8609" class="s0 sharp" />
    <path id="e238" d="M108.257,3.82578 C107.978,4.88574,107.582,5.92971,107.073,6.94857" class="s0 sharp" />
    <path id="e239" d="M47.3679,17.2333 L47.3679,9.77975" class="s0 sharp" />
    <path id="e240" d="M82.337,8.11726 C85.2391,6.65341,87.9841,5.11513,89.0705,2.94228" class="s0 sharp hidden" />
    <path id="e241" d="M89.0705,2.94228 L89.0775,2.93995" class="s0 sharp hidden" />
    <path id="e242" d="M82.3415,15.5686 L82.3415,8.12322" class="s0 sharp hidden" />
    <path id="e243" d="M82.3415,15.5768 L82.3415,15.5686" class="s0 sharp" />
    <path id="e244" d="M66.1055,28.0638 C68.7264,22.8195,75.1774,18.9564,82.3415,15.5768" class="s0 sharp" />
    <path id="e245" d="M82.337,15.5708 L82.337,8.11726" class="s0 sharp hidden" />
    <path id="e246" d="M82.3415,15.5768 L82.337,15.5708" class="s0 sharp" />
    <path id="e247" d="M227.224,15.5692 L227.224,8.11561" class="s0 sharp" />
    <path id="e248" d="M227.224,15.5691 L227.224,15.5692" class="s0 sharp" />
    <path id="e249" d="M227.224,15.5691 L227.224,8.1155" class="s0 sharp" />
    <path id="e250" d="M107.073,14.4021 L107.073,6.94857" class="s0 smooth" />
    <path id="e251" d="M107.073,14.4021 C104.451,19.6454,98.4163,23.6672,90.8271,26.8909" class="s0 sharp" />
    <path id="e252" d="M36.8311,-39.8289 C23.7659,-35.4738,16.3731,-27.1415,16.3731,-18.2728" class="s0 sharp" />
    <path id="e253" d="M44.429,3.8609 C44.1017,2.62203,43.9415,1.37675,43.9415,0.138645" class="s0 sharp hidden" />
    <path id="e254" d="M62.9222,0.124635 C62.9222,1.47027,63.3789,2.83637,64.3427,4.12145" class="s0 sharp hidden" />
    <path id="e255" d="M89.0775,2.93995 C89.5292,2.03094,89.7652,1.07403,89.7652,0.106633" class="s0 sharp hidden" />
    <path id="e256" d="M108.745,0.094005 C108.745,1.34993,108.58,2.59858,108.257,3.82578" class="s0 sharp hidden" />
    <path id="e257" d="M227.224,8.11561 C211.225,13.4485,191.77,9.13072,183.765,-1.53012" class="s0 sharp" />
    <path id="e258" d="M183.765,-1.53012 C183.762,-1.53329,183.76,-1.53647,183.758,-1.53965" class="s0 sharp hidden" />
    <path id="e259" d="M183.758,-1.53965 L183.765,-1.54204" class="s0 sharp hidden" />
    <path id="e260" d="M268.647,-1.55777 L268.931,-1.16348 L269.195,-0.763154 L269.438,-0.357217 L269.662,0.0538802 L269.865,0.469688 L270.047,0.88975 L270.208,1.31361 L270.349,1.74079 L270.467,2.17083 L270.565,2.60326 L270.641,3.03761 L270.695,3.47339 L270.728,3.91013 L270.738,4.34735" class="s0 sharp hidden" />
    <path id="e261" d="M74.98,62.985 L268.639,-1.56806" class="s0 sharp hidden" />
    <path id="e262" d="M268.639,-1.56806 L268.64,-1.56732 L268.64,-1.56659 L268.641,-1.56585 L268.641,-1.56512 L268.642,-1.56438 L268.643,-1.56365 L268.643,-1.56291 L268.644,-1.56218 L268.644,-1.56144 L268.645,-1.56071 L268.645,-1.55997 L268.646,-1.55924 L268.646,-1.5585 L268.647,-1.55777" class="s0 sharp hidden" />
    <path id="e263" d="M287.408,11.801 L287.294,13.7219 L286.953,15.6308 L286.387,17.5157 L285.599,19.365 L284.594,21.1669 L283.379,22.9103 L281.961,24.5843 L280.349,26.1783 L278.554,27.6825 L276.586,29.0874 L274.457,30.3843 L272.181,31.565 L269.773,32.6222 L267.247,33.5492" class="s0 sharp" />
    <path id="e264" d="M287.408,11.801 L287.408,-18.0132" class="s0 outline" />
    <path id="e265" d="M270.738,11.8009 L270.677,12.8438 L270.491,13.8803 L270.184,14.9037 L269.756,15.9077 L269.21,16.8861 L268.551,17.8327 L267.781,18.7415 L266.906,19.607 L265.931,20.4237 L264.862,21.1865 L263.707,21.8907 L262.471,22.5317 L261.163,23.1057 L259.792,23.6091" class="s0 sharp" />
    <path id="e266" d="M270.738,11.8009 L270.738,4.34735" class="s0 outline hidden" />
    <path id="e267" d="M64.3427,11.575 L64.3427,4.12145" class="s0 sharp hidden" />
    <path id="e268" d="M64.3427,11.575 L47.3679,17.2333" class="s0 sharp" />
    <path id="e269" d="M16.3731,11.5414 L16.3731,-18.2728" class="s0 outline" />
    <path id="e270" d="M16.3731,11.5414 C16.3731,15.2768,17.6845,19.1072,20.4359,22.7758" class="s0 sharp" />
    <path id="e271" d="M89.0705,10.3958 L89.0705,2.94228" class="s0 sharp hidden" />
    <path id="e272" d="M82.337,15.5708 C85.2391,14.107,87.9841,12.5687,89.0705,10.3958" class="s0 sharp" />
    <path id="e273" d="M89.0705,10.3958 L89.0775,10.3935" class="s0 sharp" />
    <path id="e274" d="M89.0775,10.3935 L89.0775,2.93995" class="s0 sharp hidden" />
    <path id="e275" d="M89.7652,0.106633 C89.7652,-1.23559,89.311,-2.598,88.349,-3.88064" class="s0 sharp" />
    <path id="e276" d="M43.9415,7.59221 L43.9415,0.138645" class="s0 outline hidden" />
    <path id="e277" d="M47.3679,17.2333 C45.0428,14.1333,43.9415,10.8381,43.9415,7.59221" class="s0 sharp" />
    <path id="e278" d="M62.9222,7.5782 L62.9222,0.124635" class="s0 outline" />
    <path id="e279" d="M62.9222,7.5782 C62.9222,8.92383,63.3789,10.2899,64.3427,11.575" class="s0 sharp" />
    <path id="e280" d="M89.0775,10.3935 C89.5292,9.4845,89.7652,8.52759,89.7652,7.56019" class="s0 sharp" />
    <path id="e281" d="M89.7652,7.56019 L89.7652,0.106633" class="s0 outline" />
    <path id="e282" d="M108.745,7.54756 C108.745,9.88826,108.172,12.2036,107.073,14.4021" class="s0 sharp" />
    <path id="e283" d="M108.745,7.54756 L108.745,0.094005" class="s0 outline hidden" />
    <path id="e284" d="M200.738,-7.19982 C204.048,-2.78563,212.108,-0.990208,218.737,-3.19994" class="s0 sharp hidden" />
    <path id="e285" d="M244.648,-7.48772 C242.934,-0.973978,236.772,4.93271,227.224,8.1155" class="s0 sharp" />
    <path id="e286" d="M183.758,5.91391 L183.758,-1.53965" class="s0 sharp hidden" />
    <path id="e287" d="M227.224,15.5692 C211.221,20.9036,191.758,16.5817,183.758,5.91391" class="s0 sharp" />
    <path id="e288" d="M183.758,5.91391 L183.765,5.91152" class="s0 sharp" />
    <path id="e289" d="M183.765,5.91152 L183.765,-1.54204" class="s0 sharp" />
    <path id="e290" d="M268.647,5.89579 L268.647,-1.55777" class="s0 sewn hidden" />
    <path id="e291" d="M268.647,5.89579 L268.931,6.29008 L269.195,6.69041 L269.438,7.09634 L269.662,7.50744 L269.865,7.92325 L270.047,8.34331 L270.208,8.76717 L270.349,9.19435 L270.467,9.62439 L270.565,10.0568 L270.641,10.4912 L270.695,10.9269 L270.728,11.3637 L270.738,11.8009" class="s0 sharp" />
    <path id="e292" d="M268.639,5.8855 L268.64,5.88624 L268.64,5.88697 L268.641,5.88771 L268.641,5.88844 L268.642,5.88918 L268.643,5.88991 L268.643,5.89065 L268.644,5.89138 L268.644,5.89212 L268.645,5.89285 L268.645,5.89359 L268.646,5.89432 L268.646,5.89506 L268.647,5.89579" class="s0 sharp" />
    <path id="e293" d="M74.98,70.4386 L268.639,5.8855" class="s0 sharp" />
    <path id="e294" d="M268.639,-1.56806 L268.639,5.8855" class="s0 sharp hidden" />
    <path id="e295" d="M70.3373,-7.88227 C65.6373,-6.31561,62.9222,-3.15632,62.9222,0.124635" class="s0 sharp" />
    <path id="e296" d="M88.349,-3.88064 C85.0352,-8.29904,76.9665,-10.092,70.3373,-7.88227" class="s0 sharp" />
    <path id="e297" d="M218.737,4.25362 L218.737,-3.19994" class="s0 smooth hidden" />
    <path id="e298" d="M105.322,-9.53836 C107.645,-6.44148,108.745,-3.14945,108.745,0.094005" class="s0 sharp hidden" />
    <path id="e299" d="M88.349,3.57292 L88.349,-3.88064" class="s0 smooth" />
    <path id="e300" d="M89.7652,7.56019 C89.7652,6.21797,89.311,4.85556,88.349,3.57292" class="s0 sharp" />
    <path id="e301" d="M140.308,-11.1931 L157.267,31.436" class="s0 sharp hidden" />
    <path id="e302" d="M181.272,23.4345 L140.308,-11.1931" class="s0 sharp" />
    <path id="e303" d="M218.737,-3.19994 C223.435,-4.76576,226.154,-7.92903,226.154,-11.2115" class="s0 sharp hidden" />
    <path id="e304" d="M245.136,-11.219 C245.136,-9.96313,244.971,-8.71465,244.648,-7.48772" class="s0 sharp hidden" />
    <path id="e305" d="M283.557,0.92595 L283.557,-28.8883" class="s0 sewn" />
    <path id="e306" d="M283.557,0.92595 L284.079,1.65209 L284.565,2.38936 L285.014,3.13695 L285.426,3.89404 L285.8,4.65981 L286.135,5.43342 L286.432,6.214 L286.69,7.00072 L286.909,7.7927 L287.089,8.58907 L287.228,9.38897 L287.328,10.1915 L287.388,10.9958 L287.408,11.801" class="s0 sharp" />
    <path id="e307" d="M283.549,0.91554 L283.55,0.916283 L283.55,0.917027 L283.551,0.91777 L283.551,0.918514 L283.552,0.919257 L283.553,0.920001 L283.553,0.920745 L283.554,0.921488 L283.554,0.922232 L283.555,0.922975 L283.555,0.923719 L283.556,0.924463 L283.556,0.925206 L283.557,0.92595" class="s0 sharp" />
    <path id="e308" d="M283.549,-28.8987 L283.549,0.91554" class="s0 sharp" />
    <path id="e309" d="M283.549,0.91554 L283.549,0.915518" class="s0 sharp" />
    <path id="e310" d="M283.549,0.915518 L283.549,-28.8987" class="s0 sharp" />
    <path id="e311" d="M200.738,0.253743 L200.738,-7.19982" class="s0 smooth hidden" />
    <path id="e312" d="M200.738,0.253743 C204.048,4.66793,212.108,6.46335,218.737,4.25362" class="s0 sharp" />
    <path id="e313" d="M226.154,-8.21824 L226.154,-11.2115" class="s0 outline hidden" />
    <path id="e314" d="M70.3373,-0.428713 L70.3373,-7.88227" class="s0 smooth" />
    <path id="e315" d="M70.3373,-0.428713 C65.6373,1.13795,62.9222,4.29724,62.9222,7.5782" class="s0 sharp" />
    <path id="e316" d="M88.349,3.57292 C85.0352,-0.84548,76.9665,-2.63844,70.3373,-0.428713" class="s0 sharp" />
    <path id="e317" d="M226.154,-11.2115 C226.154,-12.5546,225.698,-13.9178,224.737,-15.1996" class="s0 sharp hidden" />
    <path id="e318" d="M105.322,-2.0848 L105.322,-9.53836" class="s0 smooth hidden" />
    <path id="e319" d="M105.322,-2.0848 C107.645,1.01208,108.745,4.30411,108.745,7.54756" class="s0 sharp" />
    <path id="e320" d="M140.308,-3.73959 L157.267,38.8895" class="s0 sharp" />
    <path id="e321" d="M140.308,-3.73959 L140.308,-11.1931" class="s0 sharp" />
    <path id="e322" d="M181.272,30.888 L140.308,-3.73959" class="s0 sharp" />
    <path id="e323" d="M218.737,4.25362 C223.435,2.6878,226.154,-0.475473,226.154,-3.75789" class="s0 sharp" />
    <path id="e324" d="M226.154,-3.75789 L226.154,-8.21824" class="s0 outline" />
    <path id="e325" d="M245.136,-3.76544 L245.136,-11.219" class="s0 outline hidden" />
    <path id="e326" d="M245.136,-3.76544 C245.136,4.15775,238.571,11.7867,227.224,15.5691" class="s0 sharp" />
    <path id="e327" d="M43.9415,0.138645 C43.9415,-7.78524,50.5047,-15.4157,61.8508,-19.1977" class="s0 sharp hidden" />
    <path id="e328" d="M224.737,-15.1996 L241.71,-20.8573" class="s0 sharp hidden" />
    <path id="e329" d="M241.71,-20.8573 C244.035,-17.7579,245.136,-14.4638,245.136,-11.219" class="s0 sharp hidden" />
    <path id="e330" d="M224.737,-7.74602 L224.737,-15.1996" class="s0 sharp hidden" />
    <path id="e331" d="M226.154,-3.75789 C226.154,-5.10109,225.698,-6.46423,224.737,-7.74602" class="s0 sharp" />
    <path id="e332" d="M61.8508,-19.1977 C77.8525,-24.5316,97.3213,-20.2062,105.322,-9.53836" class="s0 sharp hidden" />
    <path id="e333" d="M36.8311,-10.0146 L36.8311,-39.8289" class="s0 smooth" />
    <path id="e334" d="M36.8311,-10.0146 C23.7659,-5.65954,16.3731,2.67275,16.3731,11.5414" class="s0 sharp" />
    <path id="e335" d="M206.738,-19.1993 L202.719,-24.5577" class="s0 sharp" />
    <path id="e336" d="M61.8508,-11.7441 L61.8508,-19.1977" class="s0 smooth hidden" />
    <path id="e337" d="M43.9415,7.59221 C43.9415,-0.331684,50.5047,-7.96213,61.8508,-11.7441" class="s0 sharp" />
    <path id="e338" d="M206.738,-11.7458 L206.738,-19.1993" class="s0 sharp" />
    <path id="e339" d="M241.71,-13.4037 L241.71,-20.8573" class="s0 sharp hidden" />
    <path id="e340" d="M224.737,-7.74602 L241.71,-13.4037" class="s0 sharp" />
    <path id="e341" d="M241.71,-13.4037 C244.035,-10.3043,245.136,-7.0102,245.136,-3.76544" class="s0 sharp" />
    <path id="e342" d="M231.238,-27.3662 L206.738,-19.1993" class="s0 sharp" />
    <path id="e343" d="M61.8508,-11.7441 C77.8525,-17.078,97.3213,-12.7526,105.322,-2.0848" class="s0 sharp" />
    <path id="e344" d="M235.71,-28.8569 L231.238,-27.3662" class="s0 sharp hidden" />
    <path id="e345" d="M183.765,-1.54204 L163.279,-28.857" class="s0 sharp" />
    <path id="e346" d="M140.296,37.0931 L113.932,-29.1045" class="s0 sharp" />
    <path id="e347" d="M202.719,-24.5577 L198.247,-30.5206" class="s0 sharp hidden" />
    <path id="e348" d="M180.251,-34.5148 L200.738,-7.19982" class="s0 sharp hidden" />
    <path id="e349" d="M198.247,-30.5206 L210.246,-34.5205" class="s0 sharp hidden" />
    <path id="e350" d="M163.279,-28.857 C161.839,-30.7761,160.868,-32.7698,160.337,-34.7803" class="s0 sharp" />
    <path id="e351" d="M235.71,-21.4034 L235.71,-28.8569" class="s0 sharp hidden" />
    <path id="e352" d="M235.71,-21.4034 L206.738,-11.7458" class="s0 sharp" />
    <path id="e353" d="M183.765,5.91152 L163.279,-21.4034" class="s0 sharp" />
    <path id="e354" d="M163.279,-21.4034 L163.279,-28.857" class="s0 smooth" />
    <path id="e355" d="M113.932,-29.1045 L111.312,-35.6845" class="s0 sharp hidden" />
    <path id="e356" d="M198.247,-23.067 L198.247,-30.5206" class="s0 sharp hidden" />
    <path id="e357" d="M206.738,-11.7458 L198.247,-23.067" class="s0 sharp" />
    <path id="e358" d="M160.337,-34.7803 C160.01,-36.0193,159.85,-37.2646,159.85,-38.5028" class="s0 sharp hidden" />
    <path id="e359" d="M178.831,-38.5091 C178.831,-37.1646,179.288,-35.7995,180.251,-34.5148" class="s0 sharp hidden" />
    <path id="e360" d="M180.251,-27.0612 L180.251,-34.5148" class="s0 smooth hidden" />
    <path id="e361" d="M180.251,-27.0612 L200.738,0.253743" class="s0 sharp" />
    <path id="e362" d="M198.247,-23.067 L210.246,-27.0669" class="s0 sharp" />
    <path id="e363" d="M210.246,-27.0669 L210.246,-34.5205" class="s0 sharp" />
    <path id="e364" d="M283.549,-28.8987 L244.043,-81.5741" class="s0 sharp" />
    <path id="e365" d="M111.312,-35.6845 L128.283,-41.3416" class="s0 sharp hidden" />
    <path id="e366" d="M128.283,-41.3416 L198.243,17.7773" class="s0 sharp hidden" />
    <path id="e367" d="M140.296,44.5467 L111.312,-28.2309" class="s0 sharp" />
    <path id="e368" d="M111.312,-28.2309 L111.312,-35.6845" class="s0 sharp hidden" />
    <path id="e369" d="M204.247,-42.5192 L210.246,-34.5205" class="s0 sharp" />
    <path id="e370" d="M163.279,-21.4034 C160.952,-24.5052,159.85,-27.802,159.85,-31.0492" class="s0 sharp" />
    <path id="e371" d="M159.85,-31.0492 L159.85,-38.5028" class="s0 outline hidden" />
    <path id="e372" d="M178.831,-31.0555 C178.831,-29.7111,179.288,-28.3459,180.251,-27.0612" class="s0 sharp" />
    <path id="e373" d="M178.831,-31.0555 L178.831,-38.5091" class="s0 outline" />
    <path id="e374" d="M186.251,-46.5144 C181.549,-44.947,178.831,-41.7895,178.831,-38.5091" class="s0 sharp" />
    <path id="e375" d="M111.312,-28.2309 L128.283,-33.8881" class="s0 sharp" />
    <path id="e376" d="M128.283,-33.8881 L198.243,25.2309" class="s0 sharp" />
    <path id="e377" d="M128.283,-33.8881 L128.283,-41.3416" class="s0 sharp hidden" />
    <path id="e378" d="M204.247,-42.5192 C200.929,-46.9307,192.871,-48.721,186.251,-46.5144" class="s0 sharp" />
    <path id="e379" d="M221.224,-48.1721 L235.71,-28.8569" class="s0 sharp hidden" />
    <path id="e380" d="M221.233,-48.1751 L221.224,-48.1721" class="s0 sharp hidden" />
    <path id="e381" d="M204.247,-35.0656 L210.246,-27.0669" class="s0 sharp" />
    <path id="e382" d="M204.247,-35.0656 L204.247,-42.5192" class="s0 sharp" />
    <path id="e383" d="M194.857,-92.5042 L36.8311,-39.8289" class="s0 sharp" />
    <path id="e384" d="M186.251,-39.0608 L186.251,-46.5144" class="s0 smooth" />
    <path id="e385" d="M186.251,-39.0608 C181.549,-37.4935,178.831,-34.336,178.831,-31.0555" class="s0 sharp" />
    <path id="e386" d="M204.247,-35.0656 C200.929,-39.4771,192.871,-41.2674,186.251,-39.0608" class="s0 sharp" />
    <path id="e387" d="M221.224,-40.7335 L221.224,-48.1721" class="s0 sharp hidden" />
    <path id="e388" d="M221.224,-40.7186 L235.71,-21.4034" class="s0 sharp" />
    <path id="e389" d="M221.224,-40.7186 L221.224,-40.7335" class="s0 sharp" />
    <path id="e390" d="M221.233,-40.7216 L221.233,-48.1751" class="s0 sharp hidden" />
    <path id="e391" d="M221.233,-40.7216 L221.224,-40.7186" class="s0 sharp" />
    <path id="e392" d="M244.043,-81.5741 C234.759,-93.9528,213.425,-98.6935,194.857,-92.5042" class="s0 sharp" />
    <path id="e393" d="M159.85,-38.5028 C159.85,-46.4247,166.41,-54.0521,177.761,-57.8356" class="s0 sharp hidden" />
    <path id="e394" d="M177.761,-57.8356 C193.762,-63.1695,213.231,-58.844,221.233,-48.1751" class="s0 sharp hidden" />
    <path id="e395" d="M177.761,-50.3821 L177.761,-57.8356" class="s0 smooth hidden" />
    <path id="e396" d="M159.85,-31.0492 C159.85,-38.9712,166.41,-46.5985,177.761,-50.3821" class="s0 sharp" />
    <path id="e397" d="M283.549,0.915518 L244.043,-51.7598" class="s0 sharp" />
    <path id="e398" d="M244.043,-51.7598 L244.043,-81.5741" class="s0 smooth" />
    <path id="e399" d="M177.761,-50.3821 C193.762,-55.716,213.231,-51.3904,221.233,-40.7216" class="s0 sharp" />
    <path id="e400" d="M194.857,-62.6899 L36.8311,-10.0146" class="s0 sharp" />
    <path id="e401" d="M194.857,-62.6899 L194.857,-92.5042" class="s0 smooth" />
    <path id="e402" d="M244.043,-51.7598 C234.759,-64.1385,213.425,-68.8793,194.857,-62.6899" class="s0 sharp" />
  </g>
  <style>@media (prefers-color-scheme: dark){
path {
fill: none;
stroke: #e5e5e5;
stroke-width: 1;
stroke-linecap: round;
stroke-linejoin: round;
vector-effect: non-scaling-stroke;
}
.undefined, .isoline, .sewn, .smooth {
stroke-width: 0.75;
}
.hidden {
stroke: #999999;
stroke-dasharray: 1.5 2.5;
}
}</style>
</svg>